<?xml version="1.0" encoding="UTF-8"?>
<svg id="Layer_2" data-name="Layer 2" xmlns="http://www.w3.org/2000/svg" viewBox="0 0 285.34 253.46">
  <defs>
    <style>
      .cls-1 {
        fill: #000;
        stroke-width: 0px;
      }

      .cls-2 {
        fill: none;
        stroke: #000;
        stroke-linecap: round;
        stroke-linejoin: round;
        stroke-width: 3px;
      }
    </style>
  </defs>
  <g id="Layer_1-2" data-name="Layer 1">
    <g id="Text">
      <g>
        <path class="cls-1" d="M88.68,59.98c1.02.54,1.67,1.33,1.94,2.38-.6,3.36-1.14,6.7-1.62,10.01-.48,3.32-.95,6.09-1.4,8.33-.45,2.23-.76,3.91-.92,5.02-.17,1.11-.35,2.22-.56,3.33l-.27.95c-.06.33-.12.64-.18.92-.06.28-.12.59-.18.92-.84.96-1.98,1.44-3.42,1.44-1.53,0-2.75-.39-3.65-1.17-.54-.42-.63-1.3-.27-2.66.15-.54.25-1.24.29-2.09.04-.85.1-1.57.16-2.14v-.09c-.9.33-1.71.76-2.43,1.28-.72.53-1.17.85-1.35.99-.18.13-.42.24-.72.31-.3.08-.57.13-.81.16-.57.03-.96.12-1.17.27-1.74,3.12-3.3,4.86-4.68,5.22-.87.27-1.74.34-2.61.2-.87-.13-1.56-.65-2.07-1.55-.96-.9-.72-3.36.72-7.38.78-2.13,1.9-4.69,3.35-7.67,1.45-2.98,2.86-5.59,4.21-7.81,2.91-4.77,6.1-8.79,9.58-12.06.57-.24,1.18-.52,1.84-.83.66-.31,1.31-.49,1.96-.52.65-.03,1.31.04,2,.23.69.18,1.27.45,1.76.81,1.11.84,1.27,1.91.49,3.2ZM79.05,71.81c-.63,1.8-1.26,3.46-1.89,4.97-.63,1.51-1.17,2.84-1.62,3.98l3.55-.14c.24-1.92.51-3.82.81-5.71.3-1.89.58-3.78.85-5.67l-1.71,2.57ZM77.84,80.81c.42,0,.84-.03,1.26-.09v-.04c-.39.03-.75.06-1.08.09-.33.03-.39.04-.18.04Z"/>
        <path class="cls-1" d="M102.99,92.94c-.57.01-1.15.04-1.73.07-.58.03-1.39.05-2.41.05s-2.55-.03-4.59-.09c-.48.03-.96.04-1.44.04s-.93-.09-1.35-.27c-.93-.39-1.56-1.29-1.89-2.7-.15-.66-.32-1.12-.52-1.39-.19-.27-.35-.52-.47-.77-.3-.48-.28-1.27.07-2.38.35-1.11.79-2.48,1.33-4.12.54-1.63,1.15-3.37,1.84-5.2,1.62-4.35,3.08-7.8,4.37-10.35.51-1.14.95-2.13,1.33-2.97.37-.84.71-1.57,1.01-2.18.3-.61.45-.94.45-.97.3-1.14,1.45-2.1,3.46-2.88,1.95-.81,3.72-1.02,5.31-.63,1.77.45,2.55,1.62,2.34,3.51-.42,1.86-1.04,3.72-1.87,5.58-.83,1.86-1.76,3.81-2.81,5.85-1.05,2.04-2.19,4.2-3.42,6.48-1.23,2.28-2.45,4.75-3.65,7.42-.03.12.03.23.18.32.39-.03.94-.15,1.64-.36.7-.21,1.44-.4,2.21-.56.77-.16,1.52-.25,2.27-.25s1.38.2,1.89.58c-.03.54.1.97.4,1.28.3.32.6.62.9.92.75.78.81,1.82.18,3.1-.6,1.26-1.68,2.12-3.24,2.57-.63.18-1.23.28-1.8.29Z"/>
        <path class="cls-1" d="M132.15,71.5c3.06-9.21,5.1-13.81,6.12-13.81.12,0,.25.02.4.04.48.03,1.02-.17,1.62-.58.78-.66,1.69-1.17,2.72-1.53,1.03-.36,2.05-.5,3.04-.41,2.31.21,3.76,1.43,4.36,3.65v.13c-.15.42-.3.76-.45,1.04h.18c-.75.93-1.47,2.14-2.16,3.62-.69,1.49-1.21,2.64-1.57,3.46-.36.83-.87,1.87-1.53,3.13-.66,1.26-1.42,2.81-2.27,4.63-.85,1.83-1.75,3.65-2.68,5.45-2.22,4.32-4.43,7.71-6.62,10.17-1.11,1.35-2.61,2.01-4.5,1.98-.81-.03-1.59-.24-2.34-.63-.75-.39-1.34-.99-1.75-1.8l-.95-2.83c-.39.33-.84.75-1.35,1.26s-1.05,1.04-1.62,1.58c-1.32,1.26-2.34,1.92-3.06,1.98-.72.06-1.34.07-1.85.02-.51-.04-.99-.16-1.44-.34-1.02-.39-1.68-1.14-1.98-2.25-.51-5.13-.26-11.68.77-19.67.27-1.95.51-3.87.72-5.76.51-2.67,1.47-4.59,2.88-5.76,1.2-1.02,2.37-1.32,3.51-.9.51.18.9.48,1.17.9s.36.93.27,1.53c.06,1.83.04,3.2-.04,4.1-.12,1.53-.17,2.65-.13,3.38.03.72.02,1.31-.02,1.78-.05.47-.08.9-.09,1.3-.02.41,0,.74.04.99.05.25.16.31.34.16.69-1.47,1.27-2.53,1.75-3.19.48-.66.99-1.35,1.53-2.07.84-.75,1.58-1.04,2.21-.86.33.06.68.17,1.04.34s.84.31,1.44.43c.39.33.64.69.77,1.08.09.09.18.17.27.25.09.08.16.17.2.27s.12.34.23.7c.1.36.22.74.34,1.15.12.41.23.79.31,1.17.09.38.15.62.18.74ZM133.23,90.35c0,.06,0,.07.02.02.01-.04.02-.1.02-.16l-.04.13Z"/>
        <path class="cls-1" d="M169.86,59.98c1.02.54,1.67,1.33,1.94,2.38-.6,3.36-1.14,6.7-1.62,10.01-.48,3.32-.95,6.09-1.4,8.33-.45,2.23-.76,3.91-.92,5.02-.17,1.11-.35,2.22-.56,3.33l-.27.95c-.06.33-.12.64-.18.92-.06.28-.12.59-.18.92-.84.96-1.98,1.44-3.42,1.44-1.53,0-2.75-.39-3.65-1.17-.54-.42-.63-1.3-.27-2.66.15-.54.25-1.24.29-2.09.04-.85.1-1.57.16-2.14v-.09c-.9.33-1.71.76-2.43,1.28-.72.53-1.17.85-1.35.99-.18.13-.42.24-.72.31-.3.08-.57.13-.81.16-.57.03-.96.12-1.17.27-1.74,3.12-3.3,4.86-4.68,5.22-.87.27-1.74.34-2.61.2-.87-.13-1.56-.65-2.07-1.55-.96-.9-.72-3.36.72-7.38.78-2.13,1.9-4.69,3.35-7.67,1.45-2.98,2.86-5.59,4.21-7.81,2.91-4.77,6.1-8.79,9.58-12.06.57-.24,1.18-.52,1.84-.83.66-.31,1.31-.49,1.96-.52.65-.03,1.31.04,2,.23.69.18,1.27.45,1.76.81,1.11.84,1.27,1.91.49,3.2ZM160.23,71.81c-.63,1.8-1.26,3.46-1.89,4.97-.63,1.51-1.17,2.84-1.62,3.98l3.55-.14c.24-1.92.51-3.82.81-5.71.3-1.89.58-3.78.85-5.67l-1.71,2.57ZM159.02,80.81c.42,0,.84-.03,1.26-.09v-.04c-.39.03-.75.06-1.08.09-.33.03-.39.04-.18.04Z"/>
        <path class="cls-1" d="M175.76,73.43c-.51-4.35-.72-7.89-.63-10.62-.06-1.29.46-2.52,1.58-3.69,1.05-1.11,2.14-1.72,3.28-1.84,1.26-.09,2.07.62,2.43,2.12.24.84.54,1.82.9,2.92.36,1.11.7,2.28,1.04,3.51.33-.45.85-1.24,1.57-2.38.72-1.14,1.4-2.16,2.03-3.06,1.53-2.19,2.88-3.72,4.05-4.59,1.14-.45,2.12-.58,2.95-.38s1.42.5,1.8.92c.37.42.52,1.04.43,1.85-.06,1.89-1.5,4.86-4.32,8.91-.66.93-1.33,2.01-2,3.24-.68,1.23-1.46,2.6-2.34,4.12-.89,1.52-1.73,3.02-2.54,4.52-1.86,3.39-3.32,6.61-4.37,9.67.03-.06.15,0,.36.2.21.2.41.47.58.83.48.9.43,1.65-.13,2.25-1.44,1.5-3.23,2.34-5.35,2.52-1.95.15-3.63-.21-5.04-1.08-1.41-.81-1.87-1.82-1.4-3.01h-.14c.66-1.71,1.41-3.32,2.25-4.84.84-1.51,1.71-3.08,2.61-4.7l2.02-3.6c-.51.12-.93-.24-1.26-1.08-.24-.69-.36-1.59-.36-2.7Z"/>
        <path class="cls-1" d="M199.92,93.1c-1.53.06-2.93-.13-4.21-.56-1.28-.44-2.31-1.03-3.1-1.78-.79-.75-1.3-1.63-1.51-2.63-.21-1-.03-2.03.54-3.08.78-1.26,2.34-1.63,4.68-1.12,1.77.36,2.99.56,3.67.58.67.03,1.25-.06,1.73-.27,2.19-.72,3.42-1.5,3.69-2.34.18-.63-.21-1.37-1.17-2.21-.39-.36-.83-.72-1.31-1.08-.48-.36-.89-.72-1.21-1.08-1.5-1.11-2.68-2.39-3.53-3.85-.85-1.46-1.21-3.04-1.06-4.75.15-1.71.43-3.13.85-4.25.42-1.12.94-2.12,1.57-2.99,1.11-1.53,2.55-2.77,4.32-3.74,2.04-1.05,3.67-1.72,4.9-2.02,2.43-.54,4.89-.58,7.38-.14.84.15,1.56.44,2.16.86.6.42,1.2.85,1.8,1.3,1.05,1.05,1.31,2.12.77,3.2-.21.48-.54.87-.99,1.17-.45.3-.93.47-1.44.5.06.81-.09,1.41-.45,1.8-.69.69-1.89,1.14-3.6,1.35-2.46-.18-4.12-.04-5,.41-1.02.54-1.4,1.71-1.12,3.51.06.39.31.8.74,1.22.43.42.94.87,1.53,1.35.58.48,1.2,1.02,1.85,1.62.64.6,1.21,1.29,1.69,2.07,1.68,2.76,1.54,5.99-.4,9.68-1.44,2.76-3.9,4.83-7.38,6.21-1.8.72-3.93,1.08-6.39,1.08Z"/>
        <path class="cls-1" d="M80.81,110.56l.18.04c.75.45,1.4.95,1.96,1.51.55.56,1.06,1.14,1.53,1.76.46.62.83,1.28,1.1,2,1.14,2.76.15,5.85-2.97,9.27-1.32,1.44-2.81,2.67-4.46,3.69.42.3.82.52,1.19.65.38.14.91.39,1.6.77.69.38,1.14,1.08,1.35,2.11.21,1.04.16,2.2-.16,3.49s-.89,2.62-1.71,3.98c-.83,1.37-1.9,2.59-3.22,3.67-3,2.49-6.48,3.54-10.44,3.15-.57,0-.93-.04-1.08-.13-.15-.09-.27-.17-.36-.23-.09-.06-.29-.11-.58-.13-.75.6-1.6.97-2.56,1.12-.96.15-1.87.07-2.72-.22-.85-.3-1.58-.81-2.16-1.53s-.88-1.67-.88-2.83c.09-.78.24-1.4.45-1.84-.09-.27-.13-.6-.13-.99,1.02-5.43,1.98-9.58,2.88-12.46,1.83-5.73,3.81-10.05,5.94-12.96,1.74-2.46,4.15-4.05,7.25-4.77,2.97-.69,5.64-.39,8.01.9ZM66.81,141.97c.36-.09.67-.11.92-.07.25.04.56.04.92-.02.87-.09,2.04-.63,3.51-1.62.93-.93,1.42-1.84,1.48-2.74.06-.9-.08-1.48-.4-1.73-.33-.25-.77-.38-1.33-.38s-1.17.08-1.85.25c-.67.17-1.33.26-1.96.29v.09c-.15.6-.3,1.12-.45,1.58-.15.45-.29.88-.41,1.3-.27.99-.48,2.01-.63,3.06h.18ZM75.18,118.57c-.9-.12-1.88.58-2.92,2.12-.66.96-1.17,2.42-1.53,4.36.63-.27,1.25-.5,1.87-.7.61-.19,1.19-.41,1.73-.65,1.32-.57,2.27-1.26,2.84-2.07.66-.78.87-1.44.63-1.98-.36-.48-.95-.92-1.75-1.3-.24.21-.53.29-.86.22Z"/>
        <path class="cls-1" d="M98.81,111.91v.09s0,.04.02.04c.01,0,.02.02.02.04v.09h.04l.27.72c.3.87-.48,3.57-2.34,8.1-1.98,4.83-2.9,8.6-2.75,11.29.33,1.92,1.94.38,4.81-4.63,2.28-3.9,4.48-8.17,6.62-12.83.27-.63.55-1.28.85-1.96.3-.67.67-1.24,1.12-1.69.99-1.08,2.19-1.37,3.6-.86.48-.57,1.04-.96,1.69-1.17.64-.21,1.26-.25,1.84-.13.58.12,1.09.4,1.51.83.42.44.65,1.01.68,1.73.09.6-.22,2.02-.92,4.27-.71,2.25-1.36,4.31-1.96,6.17-.6,1.86-1.22,3.89-1.85,6.08-1.53,5.19-2.75,10.08-3.65,14.67-.03.96-.44,1.75-1.24,2.38-.8.63-1.68,1.04-2.66,1.24-.98.2-1.9.16-2.77-.11-1.05-.3-1.6-1.05-1.66-2.25,0-.33-.02-.66-.05-.99.06,1.02-.67,1.89-2.2,2.61-.42.21-.81.41-1.17.58-2.1.63-4.31.5-6.61-.41-1.08-.45-2.05-1.06-2.9-1.82-.86-.76-1.45-1.67-1.78-2.72-1.05-3.36-.85-7.77.58-13.23.6-2.34,1.33-4.62,2.21-6.84.87-2.22,1.51-3.83,1.91-4.82.4-.99.7-1.67.88-2.05.18-.37.38-.74.58-1.1.51-1.02.94-1.71,1.31-2.07l.54-.5c.06-.06.12-.1.18-.11.06-.01.14-.05.23-.11.24-.15.5-.25.77-.32l.63-.13h.27c.87-.12,1.62.06,2.25.54,0,.03.03.04.09.04l.36.31.13.14.14.18s0,.04.02.04c.01,0,.02.02.02.04l.04.04v.09s.04.02.04.04v.04s.06.05.09.05v.04s0,.04.02.04.02,0,.02.02c0,.02.01.04.04.07v.04s.01.06.04.09ZM100.02,141.88v-.13s-.04.15-.04.36c0-.09.01-.15.04-.18v-.04Z"/>
        <path class="cls-1" d="M128.01,146.94c-.57.01-1.15.04-1.73.07-.58.03-1.39.05-2.41.05s-2.55-.03-4.59-.09c-.48.03-.96.04-1.44.04s-.93-.09-1.35-.27c-.93-.39-1.56-1.29-1.89-2.7-.15-.66-.32-1.12-.52-1.39-.19-.27-.35-.52-.47-.77-.3-.48-.28-1.27.07-2.38.35-1.11.79-2.48,1.33-4.12.54-1.63,1.15-3.37,1.84-5.2,1.62-4.35,3.08-7.8,4.37-10.35.51-1.14.95-2.13,1.33-2.97.37-.84.71-1.57,1.01-2.18.3-.61.45-.94.45-.97.3-1.14,1.45-2.1,3.46-2.88,1.95-.81,3.72-1.02,5.31-.63,1.77.45,2.55,1.62,2.34,3.51-.42,1.86-1.04,3.72-1.87,5.58-.83,1.86-1.76,3.81-2.81,5.85-1.05,2.04-2.19,4.2-3.42,6.48-1.23,2.28-2.45,4.75-3.65,7.42-.03.12.03.23.18.32.39-.03.94-.15,1.64-.36.7-.21,1.44-.4,2.21-.56.77-.16,1.52-.25,2.27-.25s1.38.2,1.89.58c-.03.54.1.97.4,1.28.3.32.6.62.9.92.75.78.81,1.82.18,3.1-.6,1.26-1.68,2.12-3.24,2.57-.63.18-1.23.28-1.8.29Z"/>
        <path class="cls-1" d="M149.03,146.94c-.57.01-1.15.04-1.73.07-.58.03-1.39.05-2.41.05s-2.55-.03-4.59-.09c-.48.03-.96.04-1.44.04s-.93-.09-1.35-.27c-.93-.39-1.56-1.29-1.89-2.7-.15-.66-.32-1.12-.52-1.39-.19-.27-.35-.52-.47-.77-.3-.48-.28-1.27.07-2.38.35-1.11.79-2.48,1.33-4.12.54-1.63,1.15-3.37,1.84-5.2,1.62-4.35,3.08-7.8,4.37-10.35.51-1.14.95-2.13,1.33-2.97.37-.84.71-1.57,1.01-2.18.3-.61.45-.94.45-.97.3-1.14,1.45-2.1,3.46-2.88,1.95-.81,3.72-1.02,5.31-.63,1.77.45,2.55,1.62,2.34,3.51-.42,1.86-1.04,3.72-1.87,5.58-.83,1.86-1.76,3.81-2.81,5.85-1.05,2.04-2.19,4.2-3.42,6.48-1.23,2.28-2.45,4.75-3.65,7.42-.03.12.03.23.18.32.39-.03.94-.15,1.64-.36.7-.21,1.44-.4,2.21-.56.77-.16,1.52-.25,2.27-.25s1.38.2,1.89.58c-.03.54.1.97.4,1.28.3.32.6.62.9.92.75.78.81,1.82.18,3.1-.6,1.26-1.68,2.12-3.24,2.57-.63.18-1.23.28-1.8.29Z"/>
        <path class="cls-1" d="M175.26,114.07c-1.05,3.27-2.02,6.23-2.9,8.87-.89,2.64-1.69,5.07-2.43,7.29-.74,2.22-1.42,4.27-2.05,6.14-.63,1.88-1.21,3.67-1.75,5.38-.3,1.98-1.28,3.38-2.92,4.19-.96.45-2.1.67-3.42.67s-2.31-.14-2.97-.43-1.09-.7-1.28-1.24c-.19-.54-.19-1.19,0-1.96.2-.76.53-1.81,1.01-3.15s1.09-3.14,1.82-5.42c.73-2.28,1.51-4.59,2.32-6.93,2.01-5.85,3.6-9.9,4.77-12.15.45-.84.9-1.4,1.35-1.69.45-.28.88-.5,1.3-.63.42-.13.81-.29,1.17-.47.36-.18.68-.63.97-1.35.28-.72.81-1.21,1.57-1.49.77-.27,1.49-.29,2.16-.07.68.22,1.19.71,1.53,1.44.34.74.26,1.73-.25,2.99Z"/>
        <path class="cls-1" d="M180.21,147.1c-1.53.06-2.93-.13-4.21-.56-1.28-.44-2.31-1.03-3.1-1.78-.79-.75-1.3-1.63-1.51-2.63-.21-1-.03-2.03.54-3.08.78-1.26,2.34-1.63,4.68-1.12,1.77.36,2.99.56,3.67.58.67.03,1.25-.06,1.73-.27,2.19-.72,3.42-1.5,3.69-2.34.18-.63-.21-1.37-1.17-2.21-.39-.36-.83-.72-1.31-1.08-.48-.36-.89-.72-1.21-1.08-1.5-1.11-2.68-2.39-3.53-3.85-.85-1.46-1.21-3.04-1.06-4.75.15-1.71.43-3.13.85-4.25.42-1.12.94-2.12,1.57-2.99,1.11-1.53,2.55-2.77,4.32-3.74,2.04-1.05,3.67-1.72,4.9-2.02,2.43-.54,4.89-.58,7.38-.14.84.15,1.56.44,2.16.86.6.42,1.2.85,1.8,1.3,1.05,1.05,1.31,2.12.77,3.2-.21.48-.54.87-.99,1.17-.45.3-.93.47-1.44.5.06.81-.09,1.41-.45,1.8-.69.69-1.89,1.14-3.6,1.35-2.46-.18-4.12-.04-5,.41-1.02.54-1.4,1.71-1.12,3.51.06.39.31.8.74,1.22.43.42.94.87,1.53,1.35.58.48,1.2,1.02,1.85,1.62.64.6,1.21,1.29,1.69,2.07,1.68,2.76,1.54,5.99-.4,9.68-1.44,2.76-3.9,4.83-7.38,6.21-1.8.72-3.93,1.08-6.39,1.08Z"/>
        <path class="cls-1" d="M208.34,134.68l-2.16,5.49c-.3.84-.57,1.71-.81,2.61-.24.9-.5,1.69-.77,2.36s-.68,1.21-1.24,1.6c-.56.39-1.18.68-1.87.88-.69.19-1.4.28-2.14.25-.74-.03-1.39-.17-1.96-.41-1.29-.6-1.74-1.59-1.35-2.97,1.38-6.06,2.68-10.92,3.89-14.58,1.22-3.66,2.22-6.54,3.02-8.64.79-2.1,1.63-4.32,2.5-6.66.09-.87.45-1.65,1.08-2.34s1.37-1.26,2.23-1.71c.85-.45,1.75-.77,2.68-.97.93-.19,1.76-.22,2.48-.07.72.15,1.25.48,1.6.99.34.51.37,1.25.07,2.21-1.08,2.76-1.85,4.71-2.29,5.85-.45,1.14-.85,2.16-1.21,3.06l-1.26,2.97c.63.03,1.42-.06,2.39-.27,1.74-.39,3-.52,3.78-.41,0-.15.07-.4.23-.76.84-3.66,1.78-7.02,2.83-10.08.75-2.52,2.68-3.84,5.8-3.96,1.23,0,2.16.3,2.79.9.69.63.78,1.48.27,2.56-2.76,7.74-4.71,13.85-5.85,18.32-1.29,5.16-2.14,8.64-2.54,10.44-.41,1.8-.76,2.87-1.06,3.2-.3.33-.61.56-.92.7-.31.14-.62.26-.92.38-.3.12-.54.42-.72.9h-.14c-.24.54-.77.96-1.57,1.26-.81.3-1.63.41-2.45.34-.83-.08-1.52-.38-2.07-.9-.56-.53-.7-1.33-.43-2.41.3-1.71.79-3.55,1.48-5.51.69-1.96,1.24-3.5,1.64-4.61.41-1.11.74-2.14,1.01-3.11-.24.12-.47.21-.7.27-.23.06-.5.17-.83.34-.33.17-.67.31-1.01.43-.35.12-.68.24-1.01.36-.84.33-1.53.66-2.07.99l-.41.72ZM213.42,131.66s.18-.04.45-.13c-.18.06-.33.11-.45.13Z"/>
      </g>
      <path class="cls-2" d="M44.88,74.92c1.2,2.77-28.82-1.76-43.38-73.42,12.24,22.25,24.47,37,67.85,44.49"/>
      <path class="cls-2" d="M240.46,74.92c-1.2,2.77,28.82-1.76,43.38-73.42-12.24,22.25-24.47,37-67.85,44.49"/>
      <g>
        <path class="cls-1" d="M109.86,159.2c.75-1.17,2.13-2,4.14-2.47,2.1-.48,3.83-.48,5.17,0,.69.27,1.2.67,1.53,1.19.33.53.34,1.19.04,2-.21.21-.38.47-.52.79-.13.31-.29.65-.47,1.01-.45.99-.92,1.71-1.39,2.16,1.47.18,2.58.53,3.33,1.04.75.51,1.44.99,2.07,1.44.57.54.85.94.83,1.19-.02.25-.18.5-.5.74-.31.24-.69.53-1.12.88-.44.34-.77.86-1.01,1.55.18.96.18,1.68,0,2.16-.39,1.08-1.33,1.76-2.83,2.03-.99.15-2.23.24-3.71.27-1.48.03-2.56.07-3.24.11-.68.04-1.25.16-1.73.34-1.08.36-1.53,1.07-1.35,2.12.06.36.35.74.88,1.12.52.39,1.15.83,1.87,1.3.72.48,1.47,1.01,2.25,1.58.78.57,1.47,1.23,2.07,1.98,1.38,1.68,1.83,3.53,1.35,5.54-.69,2.76-2.4,5.13-5.13,7.11-.99.72-2.15,1.32-3.46,1.8-.09.15-.19.28-.29.38-.11.1-.19.23-.25.38l-.36.54c-.3.54-.58,1.09-.85,1.67-.27.57-.6,1.14-.99,1.71-.06.03-.09.03-.09,0-.12.78-.44,1.49-.97,2.14-.52.64-1.12,1.12-1.78,1.42-.66.3-1.33.38-2.02.22-.69-.15-1.26-.62-1.71-1.39h-.04v-6.03c-2.58-.33-4.43-1.42-5.54-3.29-.51-.81-.81-1.67-.9-2.59-.09-.92.03-1.76.36-2.54.51-.72,1.19-1.18,2.05-1.37s1.76-.29,2.72-.29,1.92.02,2.88.04c.96.03,1.8-.07,2.52-.31,2.25-.54,3.56-.94,3.92-1.19s.46-.44.31-.56c-.15-.12-.39-.24-.72-.36-.33-.12-.71-.25-1.12-.41-.42-.15-.81-.34-1.17-.58-3.27-1.59-5.43-3.94-6.48-7.06-.39-1.17-.52-2.44-.38-3.8.14-1.37.43-2.55.9-3.55.46-1,1.03-1.88,1.69-2.63,1.41-1.71,3.6-3.09,6.57-4.14.69-.24,1.35-.43,1.98-.58.06-.96.09-1.63.09-2.03s0-.68.02-.88c.01-.19.07-.4.16-.61.09-.21.24-.63.45-1.26Z"/>
        <path class="cls-1" d="M136.45,159.2c.75-1.17,2.13-2,4.14-2.47,2.1-.48,3.83-.48,5.17,0,.69.27,1.2.67,1.53,1.19.33.53.34,1.19.04,2-.21.21-.38.47-.52.79-.13.31-.29.65-.47,1.01-.45.99-.92,1.71-1.39,2.16,1.47.18,2.58.53,3.33,1.04.75.51,1.44.99,2.07,1.44.57.54.85.94.83,1.19-.02.25-.18.5-.5.74-.31.24-.69.53-1.12.88-.44.34-.77.86-1.01,1.55.18.96.18,1.68,0,2.16-.39,1.08-1.33,1.76-2.83,2.03-.99.15-2.23.24-3.71.27-1.48.03-2.56.07-3.24.11-.68.04-1.25.16-1.73.34-1.08.36-1.53,1.07-1.35,2.12.06.36.35.74.88,1.12.52.39,1.15.83,1.87,1.3.72.48,1.47,1.01,2.25,1.58.78.57,1.47,1.23,2.07,1.98,1.38,1.68,1.83,3.53,1.35,5.54-.69,2.76-2.4,5.13-5.13,7.11-.99.72-2.15,1.32-3.46,1.8-.09.15-.19.28-.29.38-.11.1-.19.23-.25.38l-.36.54c-.3.54-.58,1.09-.85,1.67-.27.57-.6,1.14-.99,1.71-.06.03-.09.03-.09,0-.12.78-.44,1.49-.97,2.14-.52.64-1.12,1.12-1.78,1.42-.66.3-1.33.38-2.02.22-.69-.15-1.26-.62-1.71-1.39h-.04v-6.03c-2.58-.33-4.43-1.42-5.54-3.29-.51-.81-.81-1.67-.9-2.59-.09-.92.03-1.76.36-2.54.51-.72,1.19-1.18,2.05-1.37s1.76-.29,2.72-.29,1.92.02,2.88.04c.96.03,1.8-.07,2.52-.31,2.25-.54,3.56-.94,3.92-1.19s.46-.44.31-.56c-.15-.12-.39-.24-.72-.36-.33-.12-.71-.25-1.12-.41-.42-.15-.81-.34-1.17-.58-3.27-1.59-5.43-3.94-6.48-7.06-.39-1.17-.52-2.44-.38-3.8.14-1.37.43-2.55.9-3.55.46-1,1.03-1.88,1.69-2.63,1.41-1.71,3.6-3.09,6.57-4.14.69-.24,1.35-.43,1.98-.58.06-.96.09-1.63.09-2.03s0-.68.02-.88c.01-.19.07-.4.16-.61.09-.21.24-.63.45-1.26Z"/>
        <path class="cls-1" d="M163.05,159.2c.75-1.17,2.13-2,4.14-2.47,2.1-.48,3.83-.48,5.17,0,.69.27,1.2.67,1.53,1.19.33.53.34,1.19.04,2-.21.21-.38.47-.52.79-.13.31-.29.65-.47,1.01-.45.99-.92,1.71-1.39,2.16,1.47.18,2.58.53,3.33,1.04.75.51,1.44.99,2.07,1.44.57.54.85.94.83,1.19-.02.25-.18.5-.5.74-.31.24-.69.53-1.12.88-.44.34-.77.86-1.01,1.55.18.96.18,1.68,0,2.16-.39,1.08-1.33,1.76-2.83,2.03-.99.15-2.23.24-3.71.27-1.48.03-2.56.07-3.24.11-.68.04-1.25.16-1.73.34-1.08.36-1.53,1.07-1.35,2.12.06.36.35.74.88,1.12.52.39,1.15.83,1.87,1.3.72.48,1.47,1.01,2.25,1.58.78.57,1.47,1.23,2.07,1.98,1.38,1.68,1.83,3.53,1.35,5.54-.69,2.76-2.4,5.13-5.13,7.11-.99.72-2.15,1.32-3.46,1.8-.09.15-.19.28-.29.38-.11.1-.19.23-.25.38l-.36.54c-.3.54-.58,1.09-.85,1.67-.27.57-.6,1.14-.99,1.71-.06.03-.09.03-.09,0-.12.78-.44,1.49-.97,2.14-.52.64-1.12,1.12-1.78,1.42-.66.3-1.33.38-2.02.22-.69-.15-1.26-.62-1.71-1.39h-.04v-6.03c-2.58-.33-4.43-1.42-5.54-3.29-.51-.81-.81-1.67-.9-2.59-.09-.92.03-1.76.36-2.54.51-.72,1.19-1.18,2.05-1.37s1.76-.29,2.72-.29,1.92.02,2.88.04c.96.03,1.8-.07,2.52-.31,2.25-.54,3.56-.94,3.92-1.19s.46-.44.31-.56c-.15-.12-.39-.24-.72-.36-.33-.12-.71-.25-1.12-.41-.42-.15-.81-.34-1.17-.58-3.27-1.59-5.43-3.94-6.48-7.06-.39-1.17-.52-2.44-.38-3.8.14-1.37.43-2.55.9-3.55.46-1,1.03-1.88,1.69-2.63,1.41-1.71,3.6-3.09,6.57-4.14.69-.24,1.35-.43,1.98-.58.06-.96.09-1.63.09-2.03s0-.68.02-.88c.01-.19.07-.4.16-.61.09-.21.24-.63.45-1.26Z"/>
      </g>
      <path class="cls-1" d="M103.52,217.84c-6.06,4.51-6.97,12.74-4.08,19.35s9.53,11.55,16.54,13.84c3.96,1.3,8.13,1.91,12.27,2.22s8.46.36,12.6-.48c7.12-1.44,13.37-6.24,16.45-12.85,3.56-7.66,2.54-16.98-2.62-23.68-.5-.65-1.28-.98-2.05-.54-.64.36-1.03,1.41-.54,2.05,4.05,5.26,5.46,12.27,3.4,18.63-1.87,5.8-6.61,10.68-12.38,12.67-3.63,1.25-7.48,1.48-11.28,1.38-3.55-.1-7.12-.41-10.61-1.12-6.64-1.37-13.2-4.37-17.19-10.07-3.83-5.47-5.06-14.31.99-18.82,1.53-1.14.04-3.75-1.51-2.59h0Z"/>
      <path class="cls-1" d="M101.21,214.99c.75,2.9,4.09,4.79,6.96,3.88.75-.24,1.3-1.05,1.05-1.85-.24-.75-1.04-1.3-1.85-1.05-.21.07-.43.12-.65.15l.4-.05c-.33.04-.66.03-1,0l.4.05c-.19-.03-.37-.07-.56-.12-.09-.02-.17-.05-.26-.08-.05-.02-.1-.04-.16-.06-.2-.07.17.07.17.07-.07.03-.44-.23-.51-.27-.08-.05-.15-.1-.22-.15-.05-.03-.19-.14.02.02.22.17.03.02,0,0-.14-.11-.27-.24-.39-.37-.05-.05-.27-.33-.1-.1s-.02-.03-.06-.09c-.11-.16-.19-.32-.28-.49-.09-.19.08.18.07.17-.02,0-.05-.14-.06-.16-.03-.1-.06-.19-.09-.29-.2-.76-1.08-1.29-1.85-1.05s-1.26,1.03-1.05,1.85h0Z"/>
      <path class="cls-1" d="M149.72,220.08c1.47-1.69,2.94-3.38,4.4-5.07.26-.3.44-.65.44-1.06,0-.37-.16-.81-.44-1.06-.56-.52-1.57-.63-2.12,0-1.47,1.69-2.94,3.38-4.4,5.07-.26.3-.44.65-.44,1.06,0,.37.16.81.44,1.06.56.52,1.57.63,2.12,0h0Z"/>
      <g>
        <path class="cls-1" d="M126.8,41.5c5.19-6.86,10.38-13.72,15.57-20.59l-2.74-.36c1.84,5.78,4.15,11.4,6.89,16.81.45.89,1.69.93,2.36.3,5.9-5.54,11.8-11.07,17.7-16.61,1.41-1.32-.71-3.44-2.12-2.12-5.9,5.54-11.8,11.07-17.7,16.61l2.36.3c-2.63-5.18-4.82-10.56-6.59-16.09-.42-1.32-1.98-1.37-2.74-.36-5.19,6.86-10.38,13.72-15.57,20.59-1.16,1.54,1.44,3.04,2.59,1.51h0Z"/>
        <path class="cls-1" d="M157.41,22.18c3.88-.7,7.62-1.86,11.25-3.4l-2.26-1.3c-.39,4.39-.63,8.79-.73,13.19-.04,1.93,2.96,1.93,3,0,.1-4.4.35-8.8.73-13.19.05-.51-.32-1.05-.74-1.3-.51-.3-1-.22-1.51,0-3.38,1.43-6.93,2.44-10.54,3.1-.8.14-1.25,1.11-1.05,1.85.23.84,1.05,1.19,1.85,1.05h0Z"/>
      </g>
    </g>
  </g>
</svg>