<?xml version="1.0" encoding="UTF-8"?>
<svg id="Layer_2" data-name="Layer 2" xmlns="http://www.w3.org/2000/svg" viewBox="0 0 411.46 726.98">
  <defs>
    <style>
      .cls-1 {
        fill: #2c5b38;
      }

      .cls-1, .cls-2, .cls-3, .cls-4, .cls-5, .cls-6, .cls-7 {
        stroke-width: 0px;
      }

      .cls-2 {
        fill: #72451d;
      }

      .cls-3 {
        fill: #b2722a;
      }

      .cls-4 {
        fill: #91581f;
      }

      .cls-5 {
        fill: #000;
      }

      .cls-6 {
        fill: #542f14;
      }

      .cls-7 {
        fill: #985d23;
      }
    </style>
  </defs>
  <g id="Calque_1" data-name="Calque 1">
    <path class="cls-7" d="M218.67,6.29v56c-.1,55.7-.1,111.5-.3,167.2-.3,73.5-.9,146.9-1.6,220.4l-1.7,195c-.4-1.2-.7-2.4-.8-3.6-1.2,6.3-4.4,12.5-9,17-1.8,1.7-3.8,3.2-5.9,4.3-1.8.9-3.7,1.6-5.7,2.1-1.1.2-2.2.4-3.3.4,1.7-219.9,2.5-439.9,2.6-659.8l-.7,5c.1-2.6.1-5.3.2-8,8.5-4.2,19.4-2.5,26.2,4Z"/>
    <path class="cls-2" d="M197.37,4.89c4.8,13-.1,27.1,3.2,40.3.9,3.7,2.4,7.2,2.5,11.1.1,3.6-.4,7.3-.7,10.9-.4,3.7-.8,7.5-1.5,11.2-.7,3.6-1.8,7.1-2.6,10.6-.9,3.8-1,7.4,0,11.2,1,3.6,2.6,7.4,1.5,11.2-.4,1.4,1.8,2,2.2.6.9-3.2.2-6.4-.7-9.5-1-3.6-2-6.9-1.3-10.6.6-3.6,1.9-7,2.6-10.5.8-3.7,1.3-7.5,1.8-11.2.4-3.8.9-7.6,1.1-11.4.1-3.6-.5-7-1.5-10.5-1.1-3.5-1.9-6.9-2.1-10.6-.2-3.5-.1-7.1,0-10.6.3-7.6.6-15.4-2.1-22.7-.8-1.4-3-.8-2.4.5h0Z"/>
    <path class="cls-2" d="M209.07,19.99c3,8.1.7,16.6-.6,24.8-.7,4-1.2,8.1-.9,12.2.3,4.4,1.6,8.7,2.5,13.1.9,4.6,1.1,8.9,0,13.4-1,4.1-2.4,8.2-2.3,12.5.1,4.6,1.8,9,2.1,13.5.4,4.8-.3,9.6-.8,14.3-1,8.7-1.5,18.3,4.3,25.6.9,1.1,2.5-.5,1.6-1.6-5.1-6.4-4.6-15.3-3.8-23,.5-4.7,1.2-9.4,1-14.1-.2-4.5-1.7-8.8-2.1-13.3-.4-4.4.9-8.6,2-12.8,1-4.2,1.3-8.3.6-12.6-.7-4.4-2.1-8.6-2.7-13-.6-4.2-.2-8.4.4-12.5,1.4-8.9,4.1-18.2.8-27-.4-1.5-2.6-.9-2.1.5h0Z"/>
    <path class="cls-2" d="M203.97,195.49c-.4-9-.8-18.1-1.2-27.1-.2-4.5-.5-9.1-.4-13.6.2-4.2.7-8.3.9-12.4.3-4.6.1-9.3-1.4-13.7-.5-1.4-2.6-.8-2.2.6,2.7,8,.8,16.5.4,24.7-.2,4.3.1,8.7.3,13,.2,4.5.4,8.9.6,13.4.2,5.1.4,10.1.7,15.2.1,1.4,2.4,1.4,2.3-.1h0Z"/>
    <path class="cls-2" d="M210.47,167.19c1.2,5.4-.6,10.8-2,15.9-.7,2.6-1.3,5.2-1.6,7.8-.3,2.8,0,5.5.4,8.2,1,5.7,2.7,11.2,2.3,17.1-.5,5.8-2.2,11.6-1.4,17.4.7,5.7,3.8,12.3.7,17.7-.7,1.3,1.2,2.4,1.9,1.1,2.8-4.8,1.3-10.3.3-15.4-.6-3-.9-5.9-.7-8.9s.8-6,1.2-9.1c.4-2.9.6-5.9.2-8.8-.3-2.9-1-5.7-1.6-8.5-.6-2.9-1.2-5.8-1.1-8.8,0-2.9.7-5.7,1.4-8.5,1.6-5.9,3.6-11.8,2.3-18-.4-1.2-2.6-.6-2.3.8h0Z"/>
    <path class="cls-2" d="M198.07,213.59c-.4,8.5-.8,17-1.2,25.6-.2,4.1-.5,8.2-.4,12.3s.8,8,1.8,11.9c1,3.9,2,7.9,2.6,11.9.7,4.2,1.2,8.4,1.6,12.6.4,4.1.7,8.1.9,12.2.2,4.2,0,8.2-1.8,12.1-.9,1.9-1.9,3.8-2.5,5.9-.6,1.9-.9,4-1,6-.2,4.4.7,8.8,1.5,13.1.3,1.4,2.5.8,2.2-.6-.8-3.8-1.5-7.7-1.5-11.6,0-2,.2-3.9.8-5.9.5-1.9,1.4-3.6,2.2-5.4,1.6-3.6,2.4-7.1,2.3-11,0-4-.5-8.1-.8-12.1-.7-8.1-1.6-16.2-3.6-24.1-1-4-2.1-8-2.5-12.1-.3-4.1-.1-8.1.1-12.2.5-9.5.9-19,1.4-28.5.2-1.6-2-1.6-2.1-.1h0Z"/>
    <path class="cls-2" d="M208.37,265.99c2.8,8.7.7,17.7-1.1,26.3-.9,4.4-1.7,8.8-2,13.2-.3,4.7.5,9.2,1.6,13.8,1.2,4.9,2.6,9.7,2.5,14.8-.1,5.1-1.1,10.1-1.8,15.2-1.3,9.9-.3,19.8.6,29.6,1,11,2,22.2-.7,33-.4,1.4,1.8,2,2.2.6,4.9-19.6-1.8-39.5-.2-59.3.4-5.2,1.5-10.2,2-15.4.5-5,0-9.8-1.2-14.7-1.2-4.8-2.6-9.6-2.7-14.6-.1-4.6.7-9.2,1.5-13.7,1.9-9.7,4.7-19.9,1.5-29.6-.4-1.2-2.6-.6-2.2.8h0Z"/>
    <path class="cls-2" d="M201.57,418.39c-1.8-10.3-2.3-20.8-1.3-31.2.4-4.9,1.9-9.9.8-14.8-1-4.6-3.6-8.7-2.6-13.6.6-2.7,1.7-5.3,2.8-7.8,1.2-2.9,2.3-5.7,3.5-8.6.5-1.3-1.6-1.9-2.2-.6-1,2.5-2.1,5.1-3.1,7.6-1,2.4-2,4.8-2.8,7.2-.7,2.3-.9,4.6-.6,6.9.4,2.3,1.3,4.5,2,6.8.8,2.4,1.2,4.8,1,7.4s-.7,5.2-1,7.8c-.6,5.3-.8,10.6-.6,15.9.2,5.9.8,11.8,1.9,17.5.3,1.6,2.5,1,2.2-.5h0Z"/>
    <path class="cls-2" d="M202.67,425.79c-4.5,4.9-7.6,11.1-8.6,17.7-.5,3.3-.6,6.6-.1,9.8.5,3.9,1.7,7.6,2.7,11.4,1.1,3.9,1.8,7.8,1.9,11.8.1,4.2-.2,8.3-.5,12.5-.6,8.3-.9,16.7-.8,25,.1,9.4.5,18.8,1.4,28.2.1,1.4,2.4,1.4,2.2,0-1.5-16.3-1.8-32.7-.9-49,.5-7.9,1.5-15.9.1-23.7-1.3-7.2-4.4-14.1-4.2-21.5.2-7.6,3.2-15,8.4-20.6,1-1.1-.6-2.7-1.6-1.6h0Z"/>
    <path class="cls-2" d="M208.07,437.19c-1,4.5-2,9-2.9,13.5-.9,4.3-1.2,8.4-.4,12.7.4,2.2.7,4.3.3,6.6-.3,2-.9,4-1.1,6-.4,4.2,1,8.2,2.2,12.2s2.1,8.7-.3,12.5c-.8,1.2,1.2,2.4,1.9,1.1,4.6-7.3-.9-15.2-1.6-22.7-.4-4.2,1.6-8.2,1.3-12.4-.2-2.2-.8-4.4-1-6.6-.2-2.3,0-4.7.4-7,.9-5.2,2.1-10.3,3.2-15.4.4-1.3-1.7-1.9-2-.5h0Z"/>
    <path class="cls-2" d="M207.57,520.79c.9,11.5,1.7,23,1.3,34.5-.5,11.2-2.2,22.3-2.5,33.5-.2,6.3.1,12.5,1.1,18.7.2,1.4,2.4.8,2.2-.6-1.9-11-1-22.2,0-33.3.5-5.5,1.1-11.1,1.4-16.6.3-5.6.3-11.3,0-17-.3-6.4-.7-12.8-1.2-19.2-.1-1.4-2.4-1.4-2.3,0h0Z"/>
    <path class="cls-2" d="M200.87,622.39c-1.5-4.9-2.5-9.9-3-14.9-.5-5.2-.2-10.3.2-15.5.2-2.6.4-5.2.3-7.7-.1-2.5-.5-5-.6-7.6-.1-2.5.9-4.7,1.8-7,.8-2.2,1.3-4.5,1.5-6.8.5-5.4-.6-10.9-1.6-16.2-.3-1.4-2.4-.8-2.2.6.9,4.8,1.9,9.6,1.6,14.5-.1,2.4-.6,4.8-1.4,7.1-.8,2.3-1.8,4.4-1.9,6.9-.1,2.5.4,5,.6,7.5.1,2.6,0,5.2-.2,7.7-.4,5.1-.7,10.2-.3,15.3.4,5.7,1.5,11.3,3.2,16.7.3,1.3,2.4.8,2-.6h0Z"/>
    <path class="cls-1" d="M134.87,716.79c-11.8-8.5-21.1-20.5-26.4-34.1-1.5-3.9-2.7-7.9-3.5-12-.8.5-1.7,1-2.5,1.5,6.4,8.2,16.8,13,27.2,12.7,1,0,1.7-.9,1.4-1.9-2.7-11.6-5.4-23.2-8.1-34.8-.8.5-1.7,1-2.5,1.5,8.2,7.1,17.3,13.1,27,17.9,2.4,1.2,4.8,2.3,7.3,3.3,2.5,1.1,5.1,2.3,7.9,2.4,4.6.2,7.8-3.3,8.9-7.4,1.6-5.9-1.2-11.9.1-17.7-1-.1-2-.3-2.9-.4.1,9,7.6,16.1,16,18.1,9.3,2.2,18.4-2.3,24.1-9.6,3.4-4.3,5.7-9.4,6.8-14.7-1-.1-2-.3-2.9-.4,1,8.6,7.6,14.9,15.4,18,9.4,3.7,19.5,1.7,28.5-2.2,5.7-2.5,11.1-5.8,16.4-9.1-.7-.6-1.5-1.1-2.2-1.7-2.7,9.1-5.4,18.2-8.1,27.4-.3.9.5,1.9,1.4,1.9,13.9-.5,27.6-4.6,39.4-11.9-.7-.3-1.5-.6-2.2-.9,3.4,17.1-1.3,35.6-12.1,49.3-1.5,1.9-3.1,3.7-4.9,5.4-.4.4-.9.8-1.3,1.2-.5.6-.6,1.3-.7,2-.4,1.5-.8,3-1.2,4.5-.5,1.9,2.4,2.7,2.9.8.3-1.3.7-2.6,1-3.8.1-.5.2-1.2.4-1.6.2-.5,1-1,1.4-1.3,1.5-1.5,3-3.2,4.3-4.9,2.8-3.5,5.2-7.3,7.2-11.3,4-8,6.4-16.8,6.9-25.8.3-5.1-.1-10.2-1.1-15.3-.2-.9-1.4-1.4-2.2-.9-11.4,7.1-24.5,11.1-37.9,11.5.5.6,1,1.3,1.4,1.9,2.7-9.1,5.4-18.2,8.1-27.4.4-1.2-1.1-2.4-2.2-1.7-8.5,5.3-17.4,10.8-27.5,12.5-7.9,1.3-16.5-.5-22.5-5.9-3.1-2.8-5.4-6.5-5.9-10.6-.2-1.5-2.6-2.2-2.9-.4-1.7,8.2-6.5,16.2-14,20.3-7.1,3.8-15.7,2.9-21.8-2.5-3.2-2.8-5.3-6.6-5.3-10.9,0-1.6-2.6-2.1-2.9-.4-1.1,5.1.7,10.1.3,15.2-.2,3.4-2,7.8-6,7.8-2.5,0-4.9-1.2-7.1-2.1-2.3-1-4.6-2-6.8-3.1-4.5-2.2-8.9-4.7-13.1-7.4-4.7-3.1-9.2-6.4-13.5-10.1-1.1-1-2.9-.1-2.5,1.5,2.7,11.6,5.4,23.2,8.1,34.8.5-.6,1-1.3,1.4-1.9-9.7.3-19.1-4.1-25.1-11.8-1-1.3-2.8.2-2.5,1.5,3.1,14.9,10.7,28.8,21.5,39.6,3,3,6.3,5.8,9.8,8.3,1.9.8,3.4-1.8,1.8-2.9h0Z"/>
    <g>
      <path class="cls-5" d="M410.07,150.49c-12.8-20.5-28.2-39.3-45.8-56,6.8-2.1,12-8.5,12.2-15.7,10-2.5,17.6-11.9,18.1-22.2,7.5.3,14.6-6.5,13.8-14.3-.1-.7-.4-1.3-1.1-1.5-13.6-3.5-27.7-4.2-41.7-4-14.8.2-29.6,1.1-44.4,1.7-29.9,1.2-59.9,2.5-89.8,3.7l-90.1,3.8c-15,.6-29.9,1.2-44.9,1.9-7.2.3-14.3.5-21.5.9-6.3.4-12.7,1-18.8,2.7-10.6,3-18.5,9.8-25.8,17.7-6.7,7.1-13.1,15.2-22.1,19.6-2.2,1.1-4.6,1.8-7.1,2.3-1,.2-1.3,1.4-.9,2.2,5.3,11.1,12.8,21,21.2,29.9,4.3,4.6,8.9,9,13.5,13.2,4.6,4.3,9.2,8.7,14.2,12.6,5,3.9,10.4,6,16.7,6.7,7,.8,14.3.4,21.3.5,14.8.1,29.6.2,44.4.3,29.8.1,59.5.1,89.3-.1,29.6-.2,59.2-.5,88.8-.9,29.8-.4,59.5-1,89.2-1.7,3.3-.1,6.6-.2,9.8-.2.3.1.6.1.9,0h.3c2.2-.1,2.2-3,.3-3.1ZM321.97,152.39c-29.2.5-58.4.8-87.6,1-29.2.2-58.4.3-87.6.2-14.7,0-29.3-.1-44-.2-7.3,0-14.7-.1-22-.2-6.8-.1-13.9.4-20.5-1.5-2.9-.9-5.5-2.3-8-4-1.2-.9-2.4-1.8-3.5-2.8-.2-.2-.4-.3-.6-.5-.5-.4-1-.9-1.5-1.3-.8-.7-1.6-1.4-2.4-2.1-4.5-4.1-9-8.2-13.4-12.4-8.9-8.6-17.3-17.9-23.7-28.5-1.2-2.1-2.4-4.2-3.5-6.3,7.7-2,13.6-6.6,19.1-12,.4-.4.8-.8,1.2-1.2,7.6-7.8,14.4-16.8,23.6-22.2,11.5-6.6,25.4-6.4,38.2-7,15-.6,29.9-1.2,44.9-1.9,29.8-1.2,59.6-2.5,89.4-3.7,29.8-1.2,59.6-2.5,89.4-3.7,14.7-.6,29.5-1.2,44.2-1.8,13.5-.5,27.2-.9,40.6,1.1.7.1,1.5.2,2.2.3.4.1.7.1,1.1.2,2.7.5,5.4,1,8,1.7-.1,5.9-5.9,11.2-12,10-.9-.2-1.9.4-1.9,1.5.3,10.1-7.2,19.3-17,21.3-.6.1-1.1.8-1.1,1.4.4,7.1-5.2,13.8-12.3,14.5-1.2.1-2.1,1.6-1.1,2.6,17.8,16.5,33.5,35.3,46.5,55.8-28.3.6-56.5,1.2-84.7,1.7Z"/>
      <path class="cls-6" d="M406.57,150.59c-28.2.7-56.4,1.3-84.6,1.8-29.2.5-58.4.8-87.6,1-29.2.2-58.4.3-87.6.2-14.7,0-29.3-.1-44-.2-7.3,0-14.7-.1-22-.2-6.8-.1-13.9.4-20.5-1.5-2.9-.9-5.5-2.3-8-4,43.9.6,87.8,1.4,131.7,1.7,44.9.3,89.8-.2,134.7-1.7,25.2-.8,50.4-2,75.6-3.4,1-.1,2-1.3,1.3-2.3-10.1-13.1-20.1-26.2-30.2-39.3-1.2-1.6-2.4-3.1-3.6-4.7-1.3-1.7-2.8-3.3-3.9-5.1-.6-1-.7-1.6-.1-2.6.5-.8,1.1-1.5,1.7-2.2,1.4-1.7,2.8-3.3,4.1-5,5.2-6.3,10.5-12.7,15.7-19.1,5.9-7.2,11.8-14.3,17.7-21.5.2-.2.2-.4.3-.6,2.7.5,5.4,1,8,1.7-.1,5.9-5.9,11.2-12,10-.9-.2-1.9.4-1.9,1.5.3,10.1-7.2,19.3-17,21.3-.6.1-1.1.8-1.1,1.4.4,7.1-5.2,13.8-12.3,14.5-1.2.1-2.1,1.6-1.1,2.6,18.1,16.4,33.7,35.2,46.7,55.7Z"/>
      <path class="cls-5" d="M397.47,41.89c-.1.2-.2.4-.3.6-5.9,7.1-11.8,14.3-17.7,21.5-5.2,6.4-10.5,12.7-15.7,19.1-1.4,1.7-2.8,3.4-4.1,5-.6.7-1.2,1.4-1.7,2.2-.6,1-.5,1.6.1,2.6,1.1,1.8,2.6,3.4,3.9,5.1,1.2,1.5,2.4,3.1,3.6,4.7,10,13.1,20.1,26.2,30.2,39.3.7,1-.3,2.2-1.3,2.3-25.2,1.4-50.4,2.6-75.6,3.4-44.9,1.5-89.8,2-134.7,1.7-43.9-.3-87.8-1.1-131.7-1.7h-2.7c-1.6,0-1.9-2.1-.8-2.8.2-.2.5-.2.8-.2,25.2.3,50.4.7,75.7,1,44.9.6,89.9,1.1,134.8.4,43.8-.7,87.6-2.3,131.4-4.7-5.5-7.1-10.9-14.3-16.4-21.4-5.2-6.8-10.5-13.7-15.7-20.5-1.3-1.7-2.7-3.3-3.9-5.1-.4-.6-.7-1.2-.8-1.9h0c-.1-.5-.1-1-.1-1.5h0c0-.4.1-.7.3-1.1.6-1.7,2-3.1,3.1-4.5,1.3-1.6,2.6-3.2,3.9-4.8l21-25.5c.1-.1.2-.3.4-.4,3.6-4.4,7.3-8.9,10.9-13.3.3-.3.6-.7.8-1,.9-1.4,2.7.1,2.3,1.5Z"/>
      <g>
        <path class="cls-4" d="M226.67,109.19c-12.3-1.2-24.6-1.6-37-1-21.5,1-43,6.2-64.6,4-5.4-.5-10.8-1.6-16.1-2.2-5.4-.7-10.8-.7-16.2-.7-11,.1-22.1.3-33.1.5-1,0-1-1.5,0-1.5,12.4-.2,24.9-.6,37.3-.5,5.3,0,10.6.4,15.9,1.2,5.4.8,10.8,1.7,16.2,2,10.8.7,21.6-.4,32.3-1.6,10.9-1.2,21.7-2.5,32.6-2.8,10.9-.3,21.9.1,32.8,1.2.8,0,.8,1.5-.1,1.4Z"/>
        <path class="cls-4" d="M309.97,119.29c-10.2-2.1-20.7-2.3-31.1-1.5-18.5,1.4-36.6,5.3-55.1,6-19.1.7-38.2-1.2-57.2-3.3-1-.1-1-1.6,0-1.5,10.8,1.2,21.7,2.3,32.5,2.9,9.5.5,19.1.7,28.6.2s18.8-1.9,28.2-3.2c18-2.5,36.4-4.9,54.5-1.1.9.2.5,1.7-.4,1.5Z"/>
        <path class="cls-4" d="M330.17,51.69c-15.3,3.2-30.8,5.2-46.4,6.2-13.9.9-27.9.8-41.8-.1-7-.5-13.9-1.3-20.8-2-7-.7-14-.9-21-.4-13.9,1-27.5,4.1-41.3,5.6-14.2,1.6-28.5,1.4-42.7,1.3-1,0-1-1.5,0-1.5,16,.2,31.9.3,47.8-1.9,13.6-1.9,27-4.7,40.7-5.3,7-.3,13.9.3,20.9,1.1,6.9.8,13.8,1.4,20.8,1.7,27.9,1.5,56-.7,83.4-6.4.9,0,1.3,1.5.4,1.7Z"/>
        <path class="cls-4" d="M354.97,92.49h-1.3c-.1,0-.2,0-.3-.1-4.3,0-8.5,1.4-12.7,2.2-4.2.8-8.6.9-12.9.9-4.6,0-9.3-.1-13.9,0-9.1.1-18.1.4-27.2.5-1,0-1-1.5,0-1.5,5.2,0,10.3-.1,15.5-.2,9.2-.2,18.3-.1,27.5-.2,4.5,0,8.8-.4,13.2-1.4,3.9-.9,7.8-1.9,11.8-1.7h.4c.8,0,.8,1.5-.1,1.5Z"/>
        <path class="cls-4" d="M383.27,54.59c-.1.2-.2.3-.4.4-.1.1-.3.2-.5.1-7.9-1.1-15.9-.6-23.5,1.3-.9.2-1.3-1.2-.4-1.5,8-2,16.2-2.4,24.3-1.3.5.2.6.7.5,1Z"/>
        <path class="cls-4" d="M346.87,136.49c-5.7-1.2-11.4-.4-17.1.4-5.4.8-10.8,1.5-16.2,1.9-10,.6-19.9.1-29.8-1.2-5-.6-9.9-1.3-14.9-1.7-4.9-.3-9.8-.3-14.6-.3-20.2.2-40.5.5-60.7.8-1,0-1-1.5,0-1.5,11.4-.2,22.9-.3,34.3-.5,10.1-.1,20.2-.4,30.2-.4,5.1,0,10.1.2,15.1.7s9.9,1.3,14.9,1.8c9.9,1.1,19.9,1.2,29.8.3,9.6-.9,19.6-3.9,29.3-1.9,1.1.3.7,1.8-.3,1.6Z"/>
        <path class="cls-4" d="M165.57,139.29c-8.7.7-17.4,1.1-26.1,1.2-15.5.2-31-1.2-46.5-.6-15,.5-29.9,2.4-44.8,4.4-.7.1-1.3.2-2,.3-1,.1-1-1.4,0-1.5.2,0,.3,0,.5-.1,8.5-1.1,17-2.2,25.5-3.1,7.7-.8,15.4-1.4,23.2-1.6,7.8-.2,15.5.1,23.3.4,15.6.6,31.3.3,46.9-.9,1-.1,1,1.4,0,1.5Z"/>
        <path class="cls-4" d="M138.77,83.59c-8.5.4-17,.8-25.6,1.1-30,1.2-60.2,1.3-90-2.9-.2,0-.3-.1-.4-.2-.4-.4.1-1.3.8-1.2h.4c8.3,1.2,16.7,2,25.1,2.5,29.9,2,59.8.5,89.7-.9,1,.1,1,1.6,0,1.6Z"/>
      </g>
      <path class="cls-3" d="M359.27,99.39c-1.3-1.7-2.7-3.3-3.9-5.1-.4-.6-.7-1.2-.8-1.9h-1c-.1,0-.2,0-.3-.1-4.3,0-8.5,1.4-12.7,2.2-4.2.8-8.6.9-12.9.9-4.6,0-9.3-.1-13.9,0-9.1.1-18.1.4-27.2.5-1,0-1-1.5,0-1.5,5.2,0,10.3-.1,15.5-.2,9.2-.2,18.3-.1,27.5-.2,4.5,0,8.8-.4,13.2-1.4,3.9-.9,7.8-1.9,11.8-1.7,0-.4.1-.7.3-1.1.6-1.7,2-3.1,3.1-4.5,1.3-1.6,2.6-3.2,3.9-4.8l21-25.5c-.1.1-.3.2-.5.1-7.9-1.1-15.9-.6-23.5,1.3-.9.2-1.3-1.2-.4-1.5,8-2,16.2-2.4,24.3-1.3.5.1.6.5.5.9,3.6-4.4,7.3-8.9,10.9-13.3-13.4-1.9-27.1-1.6-40.6-1.1-14.7.6-29.5,1.2-44.2,1.8-29.8,1.2-59.6,2.5-89.4,3.7-29.8,1.2-59.6,2.5-89.4,3.7-15,.6-29.9,1.2-44.9,1.9-12.8.5-26.7.4-38.2,7-9.3,5.3-16,14.4-23.6,22.2,8.3,1.2,16.7,2,25.1,2.5,29.9,2,59.8.5,89.7-.9,1,0,1,1.5,0,1.5-8.5.4-17,.8-25.6,1.1-30,1.2-60.2,1.3-90-2.9-.2,0-.3-.1-.4-.2-5.5,5.4-11.4,10-19.1,12,1.1,2.1,2.2,4.3,3.5,6.3,6.4,10.7,14.8,19.9,23.7,28.5,4.4,4.2,8.9,8.3,13.4,12.4.8.7,1.6,1.4,2.4,2.1,8.5-1.1,17-2.2,25.5-3.1,7.7-.8,15.4-1.4,23.2-1.6,7.8-.2,15.5.1,23.3.4,15.6.6,31.3.3,46.9-.9,1-.1,1,1.4,0,1.5-8.7.7-17.4,1.1-26.1,1.2-15.5.2-31-1.2-46.5-.6-15,.5-29.9,2.4-44.8,4.4.2.2.4.4.6.5.2-.2.5-.2.8-.2,25.2.3,50.4.7,75.7,1,44.9.6,89.9,1.1,134.8.4,43.8-.7,87.6-2.3,131.4-4.7-5.5-7.1-10.9-14.3-16.4-21.4-5.2-6.6-10.4-13.5-15.7-20.3ZM116.07,62.39c-1,0-1-1.5,0-1.5,16,.2,31.9.3,47.8-1.9,13.6-1.9,27-4.7,40.7-5.3,7-.3,13.9.3,20.9,1.1,6.9.8,13.8,1.4,20.8,1.7,27.9,1.5,56-.7,83.4-6.4.9-.2,1.3,1.2.4,1.5-15.3,3.2-30.8,5.2-46.4,6.2-13.9.9-27.9.8-41.8-.1-7-.5-13.9-1.3-20.8-2-7-.7-14-.9-21-.4-13.9,1-27.5,4.1-41.3,5.6-14.1,1.9-28.4,1.7-42.7,1.5ZM125.07,112.09c-5.4-.5-10.8-1.6-16.1-2.2-5.4-.7-10.8-.7-16.2-.7-11,.1-22.1.3-33.1.5-1,0-1-1.5,0-1.5,12.4-.2,24.9-.6,37.3-.5,5.3,0,10.6.4,15.9,1.2,5.4.8,10.8,1.7,16.2,2,10.8.7,21.6-.4,32.3-1.6,10.9-1.2,21.7-2.5,32.6-2.8s21.9.1,32.8,1.2c1,.1,1,1.6,0,1.5-12.3-1.2-24.6-1.6-37-1-21.6.9-43.1,6.1-64.7,3.9ZM166.47,118.99c10.8,1.2,21.7,2.3,32.5,2.9,9.5.5,19.1.7,28.6.2s18.8-1.9,28.2-3.2c18-2.5,36.4-4.9,54.5-1.1,1,.2.5,1.6-.4,1.4-10.2-2.1-20.7-2.3-31.1-1.5-18.5,1.4-36.6,5.3-55.1,6-19.1.7-38.2-1.2-57.2-3.3-.9,0-.9-1.5,0-1.4ZM346.87,136.49c-5.7-1.2-11.4-.4-17.1.4-5.4.8-10.8,1.5-16.2,1.9-10,.6-19.9.1-29.8-1.2-5-.6-9.9-1.3-14.9-1.7-4.9-.3-9.8-.3-14.6-.3-20.2.2-40.5.5-60.7.8-1,0-1-1.5,0-1.5,11.4-.2,22.9-.3,34.3-.5,10.1-.1,20.2-.4,30.2-.4,5.1,0,10.1.2,15.1.7s9.9,1.3,14.9,1.8c9.9,1.1,19.9,1.2,29.8.3,9.6-.9,19.6-3.9,29.3-1.9,1.1.3.7,1.8-.3,1.6Z"/>
    </g>
    <g id="Sign">
      <g>
        <path class="cls-5" d="M102.86,80.83l.2.05c.84.5,1.57,1.06,2.19,1.68.62.62,1.19,1.27,1.71,1.96.52.69.93,1.43,1.23,2.24,1.27,3.08.17,6.53-3.32,10.35-1.47,1.61-3.13,2.98-4.98,4.12.47.34.91.58,1.33.73.42.15,1.01.44,1.78.85.77.42,1.27,1.21,1.51,2.36.23,1.16.18,2.46-.18,3.9-.35,1.44-.99,2.92-1.91,4.45-.92,1.53-2.12,2.89-3.59,4.1-3.35,2.78-7.24,3.95-11.66,3.52-.64,0-1.04-.05-1.21-.15-.17-.1-.3-.18-.4-.25-.1-.07-.32-.12-.65-.15-.84.67-1.79,1.09-2.87,1.26-1.07.17-2.09.08-3.04-.25-.96-.34-1.76-.9-2.41-1.71-.65-.8-.98-1.86-.98-3.17.1-.87.27-1.56.5-2.06-.1-.3-.15-.67-.15-1.11,1.14-6.06,2.21-10.71,3.22-13.92,2.04-6.4,4.25-11.22,6.63-14.48,1.94-2.75,4.64-4.52,8.09-5.33,3.32-.77,6.3-.44,8.95,1.01ZM87.23,115.91c.4-.1.75-.13,1.03-.08.28.05.63.04,1.03-.02.97-.1,2.28-.7,3.92-1.81,1.04-1.04,1.59-2.06,1.66-3.07.07-1-.08-1.65-.45-1.94-.37-.28-.86-.43-1.48-.43s-1.31.09-2.06.28c-.75.18-1.48.29-2.19.33v.1c-.17.67-.34,1.26-.5,1.76-.17.5-.32.99-.45,1.46-.3,1.11-.54,2.25-.7,3.42h.2ZM96.58,89.78c-1-.13-2.09.65-3.27,2.36-.74,1.07-1.31,2.7-1.71,4.88.7-.3,1.4-.56,2.09-.78.69-.22,1.33-.46,1.94-.73,1.47-.64,2.53-1.41,3.17-2.31.74-.87.97-1.61.7-2.21-.4-.54-1.06-1.02-1.96-1.46-.27.23-.59.32-.96.25Z"/>
        <path class="cls-5" d="M122.96,82.34v.1s0,.05.03.05c.02,0,.02.02.02.05v.1h.05l.3.8c.33.97-.54,3.99-2.61,9.05-2.21,5.4-3.23,9.6-3.07,12.62.37,2.14,2.16.42,5.38-5.18,2.55-4.36,5.01-9.13,7.39-14.32.3-.7.62-1.43.96-2.19.33-.75.75-1.38,1.26-1.88,1.11-1.21,2.45-1.52,4.02-.96.54-.64,1.16-1.07,1.88-1.31.72-.23,1.41-.28,2.06-.15.65.13,1.21.44,1.68.93.47.49.72,1.13.75,1.94.1.67-.24,2.26-1.03,4.77-.79,2.51-1.52,4.81-2.19,6.89-.67,2.08-1.36,4.34-2.06,6.79-1.71,5.8-3.07,11.26-4.07,16.39-.03,1.07-.49,1.96-1.38,2.66-.89.7-1.88,1.16-2.97,1.38-1.09.22-2.12.18-3.09-.13-1.17-.33-1.79-1.17-1.86-2.51,0-.37-.02-.74-.05-1.11.07,1.14-.75,2.11-2.46,2.92-.47.23-.9.45-1.31.65-2.35.7-4.81.55-7.39-.45-1.21-.5-2.29-1.18-3.24-2.04s-1.62-1.87-1.99-3.04c-1.17-3.75-.96-8.68.65-14.78.67-2.61,1.49-5.16,2.46-7.64.97-2.48,1.68-4.27,2.14-5.38.45-1.11.78-1.87.98-2.29.2-.42.42-.83.65-1.23.57-1.14,1.06-1.91,1.46-2.31l.6-.55c.07-.07.13-.11.2-.13.07-.02.15-.06.25-.13.27-.17.55-.28.85-.35l.7-.15h.3c.97-.13,1.81.07,2.51.6,0,.03.03.05.1.05l.4.35.15.15.15.2s0,.05.02.05.03.02.03.05l.05.05v.1s.05.02.05.05v.05s.07.05.1.05v.05s0,.05.03.05.02,0,.02.03.02.04.05.08v.05s.02.07.05.1ZM124.32,115.81v-.15s-.05.17-.05.4c0-.1.02-.17.05-.2v-.05Z"/>
        <path class="cls-5" d="M146.18,99.68c-.57-4.86-.8-8.81-.7-11.86-.07-1.44.52-2.81,1.76-4.12,1.17-1.24,2.4-1.93,3.67-2.06,1.41-.1,2.31.69,2.71,2.36.27.94.6,2.03,1.01,3.27.4,1.24.79,2.55,1.16,3.92.37-.5.96-1.39,1.76-2.66.8-1.27,1.56-2.41,2.26-3.42,1.71-2.45,3.22-4.15,4.52-5.13,1.27-.5,2.37-.64,3.29-.43.92.22,1.59.56,2.01,1.03.42.47.58,1.16.48,2.06-.07,2.11-1.68,5.43-4.82,9.95-.74,1.04-1.48,2.25-2.24,3.62-.75,1.37-1.63,2.91-2.61,4.6-.99,1.69-1.94,3.38-2.84,5.05-2.08,3.79-3.7,7.39-4.88,10.81.03-.07.17,0,.4.23.23.22.45.53.65.93.54,1.01.49,1.84-.15,2.51-1.61,1.67-3.6,2.61-5.98,2.81-2.18.17-4.05-.23-5.63-1.21-1.58-.9-2.09-2.03-1.56-3.37h-.15c.74-1.91,1.57-3.71,2.51-5.4.94-1.69,1.91-3.44,2.92-5.25l2.26-4.02c-.57.13-1.04-.27-1.41-1.21-.27-.77-.4-1.78-.4-3.02Z"/>
        <path class="cls-5" d="M198.5,75.45c.84-1.31,2.38-2.23,4.62-2.76,2.34-.54,4.27-.54,5.78,0,.77.3,1.34.75,1.71,1.33.37.59.38,1.33.05,2.24-.23.23-.43.53-.58.88-.15.35-.33.73-.53,1.13-.5,1.11-1.02,1.91-1.56,2.41,1.64.2,2.88.59,3.72,1.16.84.57,1.61,1.11,2.31,1.61.64.6.95,1.05.93,1.33-.02.29-.2.56-.55.83-.35.27-.77.6-1.26.98-.49.39-.86.96-1.13,1.73.2,1.07.2,1.88,0,2.41-.44,1.21-1.49,1.96-3.17,2.26-1.11.17-2.49.27-4.15.3-1.66.03-2.86.08-3.62.13s-1.4.18-1.94.38c-1.21.4-1.71,1.19-1.51,2.36.07.4.39.82.98,1.26.59.44,1.28.92,2.09,1.46.8.54,1.64,1.12,2.51,1.76.87.64,1.64,1.37,2.31,2.21,1.54,1.88,2.04,3.94,1.51,6.18-.77,3.08-2.68,5.73-5.73,7.94-1.11.8-2.4,1.48-3.87,2.01-.1.17-.21.31-.33.43-.12.12-.21.26-.28.43l-.4.6c-.34.6-.65,1.22-.96,1.86-.3.64-.67,1.27-1.11,1.91-.07.03-.1.03-.1,0-.13.87-.49,1.67-1.08,2.39-.59.72-1.25,1.25-1.99,1.58-.74.33-1.49.42-2.26.25-.77-.17-1.41-.69-1.91-1.56h-.05v-6.73c-2.88-.37-4.94-1.59-6.18-3.67-.57-.9-.9-1.87-1.01-2.89-.1-1.02.03-1.97.4-2.84.57-.8,1.33-1.31,2.29-1.53.96-.22,1.97-.33,3.04-.33s2.14.02,3.22.05c1.07.03,2.01-.08,2.81-.35,2.51-.6,3.97-1.05,4.37-1.33.4-.28.52-.49.35-.63-.17-.13-.44-.27-.8-.4-.37-.13-.79-.28-1.26-.45-.47-.17-.9-.38-1.31-.65-3.65-1.78-6.07-4.41-7.24-7.89-.44-1.31-.58-2.72-.43-4.25.15-1.52.49-2.85,1.01-3.97.52-1.12,1.15-2.1,1.88-2.94,1.57-1.91,4.02-3.45,7.34-4.62.77-.27,1.51-.49,2.21-.65.07-1.07.1-1.83.1-2.26s0-.76.03-.98c.02-.22.08-.44.18-.68.1-.23.27-.7.5-1.41Z"/>
        <path class="cls-5" d="M236.75,80.83l.2.05c.84.5,1.57,1.06,2.19,1.68.62.62,1.19,1.27,1.71,1.96.52.69.93,1.43,1.23,2.24,1.27,3.08.17,6.53-3.32,10.35-1.47,1.61-3.13,2.98-4.98,4.12.47.34.91.58,1.33.73.42.15,1.01.44,1.78.85.77.42,1.27,1.21,1.51,2.36.23,1.16.18,2.46-.18,3.9-.35,1.44-.99,2.92-1.91,4.45-.92,1.53-2.12,2.89-3.59,4.1-3.35,2.78-7.24,3.95-11.66,3.52-.64,0-1.04-.05-1.21-.15-.17-.1-.3-.18-.4-.25-.1-.07-.32-.12-.65-.15-.84.67-1.79,1.09-2.87,1.26-1.07.17-2.09.08-3.04-.25-.95-.34-1.76-.9-2.41-1.71-.65-.8-.98-1.86-.98-3.17.1-.87.27-1.56.5-2.06-.1-.3-.15-.67-.15-1.11,1.14-6.06,2.21-10.71,3.22-13.92,2.04-6.4,4.25-11.22,6.63-14.48,1.94-2.75,4.64-4.52,8.09-5.33,3.32-.77,6.3-.44,8.95,1.01ZM221.12,115.91c.4-.1.75-.13,1.03-.08.28.05.63.04,1.03-.02.97-.1,2.28-.7,3.92-1.81,1.04-1.04,1.59-2.06,1.66-3.07.07-1-.08-1.65-.45-1.94-.37-.28-.86-.43-1.48-.43s-1.31.09-2.06.28c-.75.18-1.48.29-2.19.33v.1c-.17.67-.34,1.26-.5,1.76-.17.5-.32.99-.45,1.46-.3,1.11-.54,2.25-.7,3.42h.2ZM230.47,89.78c-1-.13-2.09.65-3.27,2.36-.74,1.07-1.31,2.7-1.71,4.88.7-.3,1.4-.56,2.09-.78.69-.22,1.33-.46,1.93-.73,1.47-.64,2.53-1.41,3.17-2.31.74-.87.97-1.61.7-2.21-.4-.54-1.06-1.02-1.96-1.46-.27.23-.59.32-.96.25Z"/>
        <path class="cls-5" d="M256.86,82.34v.1s0,.05.03.05c.02,0,.03.02.03.05v.1h.05l.3.8c.33.97-.54,3.99-2.61,9.05-2.21,5.4-3.23,9.6-3.07,12.62.37,2.14,2.16.42,5.38-5.18,2.55-4.36,5.01-9.13,7.39-14.32.3-.7.62-1.43.96-2.19.33-.75.75-1.38,1.26-1.88,1.11-1.21,2.45-1.52,4.02-.96.54-.64,1.16-1.07,1.88-1.31.72-.23,1.41-.28,2.06-.15.65.13,1.21.44,1.68.93.47.49.72,1.13.75,1.94.1.67-.24,2.26-1.03,4.77-.79,2.51-1.52,4.81-2.19,6.89-.67,2.08-1.36,4.34-2.06,6.79-1.71,5.8-3.07,11.26-4.07,16.39-.03,1.07-.5,1.96-1.38,2.66-.89.7-1.88,1.16-2.97,1.38-1.09.22-2.12.18-3.09-.13-1.17-.33-1.79-1.17-1.86-2.51,0-.37-.02-.74-.05-1.11.07,1.14-.75,2.11-2.46,2.92-.47.23-.9.45-1.31.65-2.35.7-4.81.55-7.39-.45-1.21-.5-2.29-1.18-3.24-2.04s-1.62-1.87-1.99-3.04c-1.17-3.75-.96-8.68.65-14.78.67-2.61,1.49-5.16,2.46-7.64.97-2.48,1.68-4.27,2.14-5.38.45-1.11.78-1.87.98-2.29.2-.42.42-.83.65-1.23.57-1.14,1.06-1.91,1.46-2.31l.6-.55c.07-.07.13-.11.2-.13.07-.02.15-.06.25-.13.27-.17.55-.28.85-.35l.7-.15h.3c.97-.13,1.81.07,2.51.6,0,.03.03.05.1.05l.4.35.15.15.15.2s0,.05.03.05c.02,0,.03.02.03.05l.05.05v.1s.05.02.05.05v.05s.07.05.1.05v.05s0,.05.02.05.03,0,.03.03.02.04.05.08v.05s.02.07.05.1ZM258.21,115.81v-.15s-.05.17-.05.4c0-.1.02-.17.05-.2v-.05Z"/>
        <path class="cls-5" d="M289.47,121.47c-.64.02-1.28.04-1.93.08-.65.03-1.55.05-2.69.05s-2.85-.03-5.13-.1c-.54.03-1.07.05-1.61.05s-1.04-.1-1.51-.3c-1.04-.44-1.74-1.44-2.11-3.02-.17-.74-.36-1.26-.58-1.56-.22-.3-.39-.59-.53-.85-.33-.54-.31-1.42.08-2.66.39-1.24.88-2.77,1.48-4.6.6-1.83,1.29-3.76,2.06-5.81,1.81-4.86,3.43-8.71,4.88-11.56.57-1.27,1.06-2.38,1.48-3.32.42-.94.8-1.75,1.13-2.44.33-.69.5-1.05.5-1.08.33-1.27,1.62-2.34,3.87-3.22,2.18-.9,4.15-1.14,5.93-.7,1.98.5,2.85,1.81,2.61,3.92-.47,2.08-1.17,4.16-2.09,6.23-.92,2.08-1.97,4.26-3.14,6.53-1.17,2.28-2.45,4.69-3.82,7.24-1.37,2.55-2.73,5.31-4.07,8.29-.03.13.03.25.2.35.44-.03,1.05-.17,1.83-.4.79-.23,1.61-.44,2.46-.63.85-.18,1.7-.28,2.54-.28s1.54.22,2.11.65c-.03.6.12,1.08.45,1.43.33.35.67.7,1.01,1.03.84.87.9,2.03.2,3.47-.67,1.41-1.88,2.36-3.62,2.86-.7.2-1.37.31-2.01.33Z"/>
        <path class="cls-5" d="M312.95,121.47c-.64.02-1.28.04-1.93.08-.65.03-1.55.05-2.69.05s-2.85-.03-5.13-.1c-.54.03-1.07.05-1.61.05s-1.04-.1-1.51-.3c-1.04-.44-1.74-1.44-2.11-3.02-.17-.74-.36-1.26-.58-1.56-.22-.3-.39-.59-.53-.85-.33-.54-.31-1.42.08-2.66.39-1.24.88-2.77,1.48-4.6.6-1.83,1.29-3.76,2.06-5.81,1.81-4.86,3.43-8.71,4.88-11.56.57-1.27,1.06-2.38,1.48-3.32.42-.94.8-1.75,1.13-2.44.33-.69.5-1.05.5-1.08.33-1.27,1.62-2.34,3.87-3.22,2.18-.9,4.15-1.14,5.93-.7,1.98.5,2.85,1.81,2.61,3.92-.47,2.08-1.17,4.16-2.09,6.23-.92,2.08-1.97,4.26-3.14,6.53-1.17,2.28-2.45,4.69-3.82,7.24-1.37,2.55-2.73,5.31-4.07,8.29-.03.13.03.25.2.35.44-.03,1.05-.17,1.83-.4.79-.23,1.61-.44,2.46-.63.85-.18,1.7-.28,2.54-.28s1.54.22,2.11.65c-.03.6.12,1.08.45,1.43.33.35.67.7,1.01,1.03.84.87.9,2.03.2,3.47-.67,1.41-1.88,2.36-3.62,2.86-.7.2-1.37.31-2.01.33Z"/>
      </g>
      <path class="cls-5" d="M84.52,62.63c-7.04,1.52-14.59-2.38-17.65-8.84-.7-1.48-2.66-.56-2.8.76-.72,7.23,1.59,14.48,6.17,20.1.52.63,1.58.53,2.12,0,.63-.61.51-1.5,0-2.12-4.09-5.01-5.93-11.57-5.29-17.97l-2.8.76c3.65,7.7,12.76,12,21.04,10.22,1.89-.41,1.09-3.3-.8-2.89h0Z"/>
      <path class="cls-5" d="M325.75,65.69c4.94-2.1,9.34-5.44,12.7-9.62l-2.51-.66c1.13,4.87.88,9.94-.64,14.7-.59,1.84,2.31,2.63,2.89.8,1.68-5.27,1.88-10.91.64-16.29-.24-1.03-1.8-1.54-2.51-.66-3.23,4.02-7.35,7.14-12.09,9.15-.75.32-.91,1.42-.54,2.05.45.77,1.3.86,2.05.54h0Z"/>
    </g>
  </g>
</svg>