<?xml version="1.0" encoding="UTF-8"?>
<svg id="Layer_2" data-name="Layer 2" xmlns="http://www.w3.org/2000/svg" viewBox="0 0 139.19 181.95">
  <defs>
    <style>
      .cls-1 {
        fill: #000;
      }

      .cls-1, .cls-2 {
        stroke-width: 0px;
      }

      .cls-2 {
        fill: #b07837;
      }
    </style>
  </defs>
  <g id="Layer_1-2" data-name="Layer 1">
    <g id="Testicles">
      <path class="cls-2" d="M27.85,6.48l74.02-1.88s5.17,43.65,12.47,56.48,14.49,38.99,14.49,38.99c0,0,6.98,23.95,5.97,34.39s-1.55,22.63-14.83,28.62c-12.99,2.66-19.7,3.39-26.16-1.12s-10.63-11.12-10.63-11.12c0,0,.12,8.53-2.64,12.93s-14.02,20.67-45.48,15.55S2.53,150.99,2.53,150.99c0,0-3.13-20.69,9.16-52.47S22.99,42.3,27.85,6.48Z"/>
      <path class="cls-1" d="M26.45,4.59c-1.26,22.78-4.42,45.44-9.47,67.7-2.54,11.19-5.54,22.27-9.01,33.21-3.23,10.2-6.81,20.44-7.77,31.16-.86,9.6.87,19.55,6.66,27.45,4.71,6.43,11.36,11.03,18.72,13.96,7.64,3.05,16.08,4.27,24.28,3.75,8.63-.56,17.64-2.93,24.56-8.32,3.69-2.87,6.48-6.57,8.23-10.91,1.9-4.71,2.5-9.83,2.89-14.85.89-11.56,1.12-23.19.86-34.78-.07-2.96-.17-5.93-.31-8.89-.09-1.92-3.09-1.93-3,0,.53,11.44.54,22.9.01,34.34-.24,5.22-.42,10.53-1.27,15.69-.77,4.66-2.2,9.3-5.18,13.04-5.45,6.87-14.38,10.03-22.79,11.26-7.75,1.14-15.82.49-23.31-1.77s-14.18-6.08-19.28-11.8c-6.04-6.78-8.52-15.68-8.28-24.66.28-10.51,3.64-20.7,6.83-30.62,3.34-10.42,6.36-20.94,8.91-31.59,5.13-21.44,8.54-43.3,10.19-65.28.2-2.7.38-5.41.53-8.11.11-1.93-2.89-1.92-3,0h0Z"/>
      <path class="cls-1" d="M82.1,154.21c8.53,10.3,22.81,16.07,35.81,11.35,5.56-2.02,10.52-5.7,13.66-10.76,3.69-5.95,4.59-13.2,4.71-20.06.51-29.26-14.92-55.57-23.42-82.78-5.13-16.41-8.4-33.38-9.77-50.52-.15-1.91-3.15-1.93-3,0,1.17,14.71,3.69,29.31,7.59,43.54s9.16,26.92,14.24,40.23,9.54,26.07,10.93,39.83c1.25,12.4.86,27.72-10.82,35.17-5.64,3.6-12.56,4.86-19.11,3.52-7.42-1.52-13.93-5.86-18.72-11.64-1.23-1.49-3.34.64-2.12,2.12h0Z"/>
      <path class="cls-1" d="M24.46,98.52c.71,5.85-1.23,11.78-5.37,16-1.35,1.38.77,3.5,2.12,2.12,4.64-4.73,7.04-11.52,6.25-18.12-.1-.8-.62-1.5-1.5-1.5-.74,0-1.6.69-1.5,1.5h0Z"/>
      <path class="cls-1" d="M39.88,124.29v10.18c0,.81.69,1.5,1.5,1.5s1.5-.69,1.5-1.5v-10.18c0-.81-.69-1.5-1.5-1.5s-1.5.69-1.5,1.5h0Z"/>
      <path class="cls-1" d="M23.08,144.39c-.04.1-.08.19-.12.29.06-.15-.01.02-.03.07-.1.21-.19.43-.29.64-.19.4-.39.8-.59,1.19-.41.79-.87,1.55-1.35,2.29-.23.35-.47.69-.71,1.03-.14.19-.28.38-.42.57-.16.21.11-.14-.05.07-.06.08-.13.16-.2.25-.57.71-1.18,1.39-1.82,2.05-.55.56-.6,1.57,0,2.12s1.54.6,2.12,0c2.76-2.82,4.88-6.13,6.37-9.77.3-.73-.32-1.68-1.05-1.85-.87-.2-1.53.27-1.85,1.05h0Z"/>
      <path class="cls-1" d="M49.95,162.65c-.01,3.97,2.18,7.8,5.61,9.81.68.4,1.67.18,2.05-.54s.19-1.63-.54-2.05c-.18-.11-.37-.22-.54-.34-.07-.05-.14-.1-.21-.15,0,0-.3-.23-.16-.11s-.15-.13-.15-.12c-.07-.06-.13-.11-.19-.17-.16-.14-.31-.29-.46-.44-.13-.14-.27-.28-.39-.42-.07-.08-.14-.16-.21-.24-.18-.21.06.09-.04-.05-.23-.33-.47-.67-.67-1.02-.1-.17-.19-.34-.27-.51-.05-.1-.09-.19-.14-.29-.06-.13-.06-.12,0,0-.16-.37-.29-.76-.4-1.15s-.19-.79-.25-1.19c.03.21.01.1,0-.05-.01-.11-.02-.21-.03-.32-.01-.21-.02-.43-.02-.64,0-.78-.69-1.54-1.5-1.5s-1.5.66-1.5,1.5h0Z"/>
      <path class="cls-1" d="M29.13,172.49c-.82,2.07-1.63,4.15-2.45,6.22-.29.73.32,1.68,1.05,1.85.86.2,1.54-.26,1.85-1.05.82-2.07,1.63-4.15,2.45-6.22.29-.73-.32-1.68-1.05-1.85-.86-.2-1.54.26-1.85,1.05h0Z"/>
      <path class="cls-1" d="M129.53,140.42c2.59,1.09,5.18,2.17,7.77,3.26.73.3,1.68-.33,1.85-1.05.2-.88-.27-1.52-1.05-1.85-2.59-1.09-5.18-2.17-7.77-3.26-.73-.3-1.68.33-1.85,1.05-.2.88.27,1.52,1.05,1.85h0Z"/>
      <path class="cls-1" d="M98.01,138c-.55,2.87-1.09,5.73-1.64,8.6-.15.77.21,1.66,1.05,1.85.74.17,1.69-.22,1.85-1.05.55-2.87,1.09-5.73,1.64-8.6.15-.77-.21-1.66-1.05-1.85-.74-.17-1.69.22-1.85,1.05h0Z"/>
      <path class="cls-1" d="M110.54,160.73c-1.01,2.93-.27,6.21,1.7,8.55.51.6,1.6.56,2.12,0,.59-.64.54-1.48,0-2.12-.01-.01-.14-.17-.14-.17,0,0,.18.25.04.04-.08-.12-.17-.24-.25-.36-.16-.25-.3-.5-.42-.76-.02-.03-.06-.18-.09-.2.05.02.1.27.03.06-.05-.14-.1-.27-.14-.41-.09-.3-.17-.6-.23-.9-.01-.07-.02-.14-.04-.22-.04-.21.03.29.01.07-.01-.15-.03-.29-.04-.44-.02-.29-.01-.58,0-.87,0-.07.01-.15.02-.22,0-.04.03-.29,0-.07s0-.03.01-.07c.01-.07.03-.14.04-.21.06-.3.15-.6.25-.89.26-.74-.29-1.67-1.05-1.85-.84-.19-1.57.25-1.85,1.05h0Z"/>
      <path class="cls-1" d="M124.37,104.65h6.26c.78,0,1.54-.69,1.5-1.5s-.66-1.5-1.5-1.5h-6.26c-.78,0-1.54.69-1.5,1.5s.66,1.5,1.5,1.5h0Z"/>
      <path class="cls-1" d="M99.57,30.54c2.88,2.03,6.08,3.6,9.44,4.67.75.24,1.67-.28,1.85-1.05.19-.82-.25-1.59-1.05-1.85-1.66-.53-2.92-1.04-4.43-1.79s-2.93-1.61-4.29-2.58c-.64-.45-1.7-.14-2.05.54-.41.77-.15,1.57.54,2.05h0Z"/>
      <path class="cls-1" d="M29.79,18.51c-3.13,2.18-5.75,5.02-7.6,8.36-.38.69-.19,1.67.54,2.05s1.65.2,2.05-.54.88-1.49,1.38-2.2c.12-.18.25-.35.38-.52.17-.23-.07.08.04-.06.07-.08.13-.17.2-.25.27-.34.55-.67.84-.99.56-.63,1.16-1.22,1.79-1.78.32-.29.65-.57.99-.83.09-.08.22-.17.05-.04.09-.07.17-.13.26-.19.19-.14.38-.28.58-.42.64-.45,1-1.33.54-2.05-.41-.64-1.36-1.02-2.05-.54h0Z"/>
      <g>
        <path class="cls-1" d="M40.75,51.17c.41-.63,1.15-1.08,2.24-1.34,1.14-.26,2.07-.26,2.8,0,.37.15.65.36.83.64.18.28.19.65.02,1.08-.11.11-.21.26-.28.43-.07.17-.16.35-.26.55-.24.54-.5.92-.75,1.17.79.1,1.39.28,1.8.56.41.28.78.54,1.12.78.31.29.46.51.45.64,0,.14-.1.27-.27.4-.17.13-.37.29-.61.47-.24.19-.42.47-.55.84.1.52.1.91,0,1.17-.21.58-.72.95-1.53,1.1-.54.08-1.2.13-2.01.15-.8.02-1.39.04-1.75.06-.37.02-.68.08-.94.18-.58.2-.83.58-.73,1.14.03.19.19.4.47.61.28.21.62.45,1.01.71.39.26.79.54,1.22.85.42.31.79.67,1.12,1.07.75.91.99,1.91.73,2.99-.37,1.49-1.3,2.77-2.77,3.85-.54.39-1.16.71-1.87.97-.05.08-.1.15-.16.21s-.1.13-.13.21l-.19.29c-.16.29-.32.59-.46.9-.15.31-.32.62-.54.92-.03.02-.05.02-.05,0-.06.42-.24.81-.52,1.16-.28.35-.6.6-.96.77-.36.16-.72.2-1.09.12-.37-.08-.68-.33-.92-.75h-.02v-3.26c-1.4-.18-2.39-.77-2.99-1.78-.28-.44-.44-.9-.49-1.4s.02-.95.19-1.38c.28-.39.65-.64,1.11-.74.46-.11.95-.16,1.47-.16s1.04,0,1.56.02c.52.02.97-.04,1.36-.17,1.22-.29,1.92-.51,2.12-.64.19-.14.25-.24.17-.3-.08-.06-.21-.13-.39-.19s-.38-.14-.61-.22-.44-.19-.63-.32c-1.77-.86-2.94-2.13-3.5-3.82-.21-.63-.28-1.32-.21-2.06s.24-1.38.49-1.92c.25-.54.56-1.02.91-1.42.76-.92,1.95-1.67,3.55-2.24.37-.13.73-.24,1.07-.32.03-.52.05-.88.05-1.09s0-.37.01-.47.04-.21.08-.33c.05-.11.13-.34.24-.68Z"/>
        <path class="cls-1" d="M59.27,53.78l.1.02c.41.24.76.51,1.06.82s.58.62.83.95c.25.33.45.69.6,1.08.62,1.49.08,3.16-1.61,5.01-.71.78-1.52,1.44-2.41,2,.23.16.44.28.64.35s.49.21.86.41c.37.2.62.58.73,1.14s.09,1.19-.08,1.89c-.17.7-.48,1.42-.92,2.15s-1.03,1.4-1.74,1.98c-1.62,1.35-3.5,1.91-5.65,1.7-.31,0-.5-.02-.58-.07-.08-.05-.15-.09-.2-.12-.05-.03-.15-.06-.32-.07-.41.32-.87.53-1.39.61-.52.08-1.01.04-1.47-.12-.46-.16-.85-.44-1.17-.83s-.47-.9-.47-1.53c.05-.42.13-.75.24-1-.05-.15-.07-.32-.07-.54.55-2.94,1.07-5.18,1.56-6.74.99-3.1,2.06-5.43,3.21-7.01.94-1.33,2.25-2.19,3.92-2.58,1.61-.37,3.05-.21,4.33.49ZM51.7,70.76c.19-.05.36-.06.5-.04.14.02.3.02.5-.01.47-.05,1.1-.34,1.9-.88.5-.5.77-1,.8-1.48.03-.49-.04-.8-.22-.94s-.42-.21-.72-.21-.63.04-1,.13c-.36.09-.72.14-1.06.16v.05c-.08.32-.16.61-.24.85s-.15.48-.22.71c-.15.54-.26,1.09-.34,1.65h.1ZM56.23,58.11c-.49-.06-1.01.32-1.58,1.14-.36.52-.63,1.31-.83,2.36.34-.15.68-.27,1.01-.38.33-.11.64-.22.94-.35.71-.31,1.23-.68,1.53-1.12.36-.42.47-.78.34-1.07-.19-.26-.51-.5-.95-.71-.13.11-.28.15-.46.12Z"/>
        <path class="cls-1" d="M69,54.51v.05s0,.02.01.02.01,0,.01.02v.05h.02l.15.39c.16.47-.26,1.93-1.27,4.38-1.07,2.61-1.57,4.65-1.48,6.11.18,1.04,1.05.2,2.6-2.51,1.23-2.11,2.42-4.42,3.58-6.94.15-.34.3-.69.46-1.06.16-.36.37-.67.61-.91.54-.58,1.18-.74,1.95-.46.26-.31.56-.52.91-.63.35-.11.68-.14,1-.07.32.06.59.21.82.45s.35.55.37.94c.05.33-.12,1.1-.5,2.31s-.73,2.33-1.06,3.33c-.33,1.01-.66,2.1-1,3.29-.83,2.81-1.48,5.45-1.97,7.93-.02.52-.24.95-.67,1.29s-.91.56-1.44.67-1.03.08-1.5-.06c-.57-.16-.87-.57-.9-1.22,0-.18,0-.36-.02-.54.03.55-.37,1.02-1.19,1.41l-.63.32c-1.14.34-2.33.27-3.58-.22-.58-.24-1.11-.57-1.57-.99-.46-.41-.78-.9-.96-1.47-.57-1.82-.46-4.2.32-7.16.33-1.27.72-2.5,1.19-3.7.47-1.2.82-2.07,1.04-2.6.22-.54.38-.9.47-1.11.1-.2.2-.4.32-.6.28-.55.51-.92.71-1.12l.29-.27s.06-.05.1-.06c.03,0,.07-.03.12-.06.13-.08.27-.14.41-.17l.34-.07h.15c.47-.06.88.03,1.22.29,0,.02.02.02.05.02l.2.17.07.07.07.1s0,.02.01.02c0,0,.01,0,.01.02l.02.02v.05s.02,0,.02.02v.02s.03.02.05.02v.02s0,.02.01.02c0,0,.01,0,.01.01,0,0,0,.02.02.04v.02s0,.03.02.05ZM69.66,70.71v-.07s-.02.08-.02.19c0-.05,0-.08.02-.1v-.02Z"/>
        <path class="cls-1" d="M84.8,73.45c-.31,0-.62.02-.94.04-.32.02-.75.02-1.3.02s-1.38-.02-2.48-.05c-.26.02-.52.02-.78.02s-.5-.05-.73-.15c-.5-.21-.84-.7-1.02-1.46-.08-.36-.17-.61-.28-.75-.11-.15-.19-.28-.26-.41-.16-.26-.15-.69.04-1.29.19-.6.43-1.34.72-2.23.29-.88.62-1.82,1-2.81.88-2.35,1.66-4.22,2.36-5.6.28-.62.51-1.15.72-1.61.2-.45.38-.85.55-1.18.16-.33.24-.51.24-.52.16-.62.79-1.13,1.87-1.56,1.05-.44,2.01-.55,2.87-.34.96.24,1.38.88,1.27,1.9-.23,1.01-.56,2.01-1.01,3.02s-.95,2.06-1.52,3.16c-.57,1.1-1.18,2.27-1.85,3.5s-1.32,2.57-1.97,4.02c-.02.06.02.12.1.17.21-.02.51-.08.89-.19s.78-.21,1.19-.3c.41-.09.82-.13,1.23-.13s.75.11,1.02.32c-.02.29.06.52.22.69.16.17.32.34.49.5.41.42.44.98.1,1.68-.33.68-.91,1.14-1.75,1.39-.34.1-.67.15-.97.16Z"/>
        <path class="cls-1" d="M96.16,73.45c-.31,0-.62.02-.94.04-.32.02-.75.02-1.3.02s-1.38-.02-2.48-.05c-.26.02-.52.02-.78.02s-.5-.05-.73-.15c-.5-.21-.84-.7-1.02-1.46-.08-.36-.17-.61-.28-.75-.11-.15-.19-.28-.26-.41-.16-.26-.15-.69.04-1.29.19-.6.43-1.34.72-2.23.29-.88.62-1.82,1-2.81.88-2.35,1.66-4.22,2.36-5.6.28-.62.51-1.15.72-1.61.2-.45.38-.85.55-1.18.16-.33.24-.51.24-.52.16-.62.79-1.13,1.87-1.56,1.05-.44,2.01-.55,2.87-.34.96.24,1.38.88,1.27,1.9-.23,1.01-.56,2.01-1.01,3.02s-.95,2.06-1.52,3.16c-.57,1.1-1.18,2.27-1.85,3.5s-1.32,2.57-1.97,4.02c-.02.06.02.12.1.17.21-.02.51-.08.89-.19s.78-.21,1.19-.3c.41-.09.82-.13,1.23-.13s.75.11,1.02.32c-.02.29.06.52.22.69.16.17.32.34.49.5.41.42.44.98.1,1.68-.33.68-.91,1.14-1.75,1.39-.34.1-.67.15-.97.16Z"/>
      </g>
    </g>
  </g>
</svg>